<svg width="52" height="56" viewBox="0 0 52 56" fill="none" xmlns="http://www.w3.org/2000/svg">
<g clip-path="url(#clip0_824_2651)">
<path opacity="0.6" d="M26.5085 55.0002C34.4056 55.0002 40.8075 54.3186 40.8075 53.4779C40.8075 52.6371 34.4056 51.9556 26.5085 51.9556C18.6114 51.9556 12.2095 52.6371 12.2095 53.4779C12.2095 54.3186 18.6114 55.0002 26.5085 55.0002Z" fill="#40A45D"/>
<path d="M34.6429 19.2295C36.1108 17.8122 36.1108 15.4921 34.6429 14.0748L34.3791 13.8201C33.9028 13.3601 33.1308 13.3601 32.6545 13.8201L29.9052 16.4748" fill="#A5BFC4"/>
<path d="M34.6429 19.2295C36.1108 17.8122 36.1108 15.4921 34.6429 14.0748L34.3791 13.8201C33.9028 13.3601 33.1308 13.3601 32.6545 13.8201L29.9052 16.4748" stroke="black" stroke-miterlimit="10" stroke-linecap="round"/>
<path fill-rule="evenodd" clip-rule="evenodd" d="M9.98561 42.9982C6.69032 42.9982 3.99457 40.3429 3.99457 37.0983V27.8183C3.99457 24.5732 6.69032 21.9185 9.98561 21.9185C13.2804 21.9185 15.9766 24.5732 15.9766 27.8183V37.0983C15.9766 40.3429 13.2804 42.9982 9.98561 42.9982Z" fill="#FCE47E"/>
<path d="M9.98561 42.9982C6.69032 42.9982 3.99457 40.3429 3.99457 37.0983V27.8183C3.99457 24.5732 6.69032 21.9185 9.98561 21.9185C13.2804 21.9185 15.9766 24.5732 15.9766 27.8183V37.0983C15.9766 40.3429 13.2804 42.9982 9.98561 42.9982Z" stroke="black"/>
<path fill-rule="evenodd" clip-rule="evenodd" d="M11.7253 42.998C8.46962 42.998 5.53941 44.3702 3.49725 46.5584C5.53941 48.7461 8.46962 50.1183 11.7253 50.1183C14.9809 50.1183 17.9111 48.7461 19.9533 46.5584C17.9111 44.3702 14.9809 42.998 11.7253 42.998Z" fill="#A5BFC4"/>
<mask id="mask0_824_2651" style="mask-type:alpha" maskUnits="userSpaceOnUse" x="3" y="42" width="14" height="9">
<path fill-rule="evenodd" clip-rule="evenodd" d="M16.1234 49.2654C14.7949 49.8143 13.3358 50.1178 11.8046 50.1178C8.54897 50.1178 5.61876 48.7456 3.5766 46.5579C5.61876 44.3692 8.54897 42.9976 11.8046 42.9976C13.3358 42.9976 14.7949 43.3009 16.1234 43.8498V49.2654Z" fill="white"/>
</mask>
<g mask="url(#mask0_824_2651)">
<path fill-rule="evenodd" clip-rule="evenodd" d="M0.40329 51.9605H6.08707V39.4976H0.40329V51.9605Z" fill="#6C888C"/>
<path fill-rule="evenodd" clip-rule="evenodd" d="M8.05984 51.7456H10.9986V39.2832H8.05984V51.7456Z" fill="#6C888C"/>
<path fill-rule="evenodd" clip-rule="evenodd" d="M13.1847 51.7456H16.1235V39.2832H13.1847V51.7456Z" fill="#6C888C"/>
</g>
<path d="M20.7654 46.5577L21.1165 46.9189L21.4994 46.5577L21.1165 46.1966L20.7654 46.5577ZM11.7766 42.4976C8.88672 42.4976 6.12881 43.3851 3.80467 45.0637L4.4052 45.8701C6.55461 44.3177 9.10201 43.4976 11.7766 43.4976V42.4976ZM3.80467 45.0637C3.31944 45.415 3.03961 45.9631 3.03961 46.5577H4.05506C4.05506 46.2785 4.18244 46.0314 4.4052 45.8701L3.80467 45.0637ZM3.03961 46.5577C3.03961 47.1526 3.3192 47.6998 3.80506 48.051L4.40596 47.2449C4.18269 47.0835 4.05506 46.8366 4.05506 46.5577H3.03961ZM3.80506 48.051C6.1286 49.7296 8.88666 50.6179 11.7766 50.6179V49.6179C9.10209 49.6179 6.55481 48.7973 4.40596 47.2449L3.80506 48.051ZM11.7766 50.6179C15.2568 50.6179 18.6134 49.279 21.1165 46.9189L20.4142 46.1966C18.0989 48.3797 14.9934 49.6179 11.7766 49.6179V50.6179ZM21.1165 46.1966C18.6134 43.8364 15.2568 42.4976 11.7766 42.4976V43.4976C14.9934 43.4976 18.0989 44.7357 20.4142 46.9189L21.1165 46.1966Z" fill="black"/>
<path fill-rule="evenodd" clip-rule="evenodd" d="M38.5779 29.3523L41.619 29.3022C43.3823 29.3022 44.812 30.7103 44.812 32.4467C44.812 34.1837 43.3823 35.5912 41.619 35.5912H40.3953H38.616" fill="#A5BFC4"/>
<path d="M38.5779 29.3523L41.619 29.3022C43.3823 29.3022 44.812 30.7103 44.812 32.4467C44.812 34.1837 43.3823 35.5912 41.619 35.5912H40.3953H38.616" stroke="black"/>
<path fill-rule="evenodd" clip-rule="evenodd" d="M39.0329 35.5917H31.6522L31.9493 29.3529L39.0329 29.3022" fill="white"/>
<path fill-rule="evenodd" clip-rule="evenodd" d="M37.3318 44.9702V48.4188C37.3318 50.675 35.4749 52.5043 33.1838 52.5043C30.8933 52.5043 29.0358 50.675 29.0358 48.4188V46.8532V48.083" fill="#A5BFC4"/>
<path d="M37.3317 44.6597V48.2869C37.3317 50.6163 35.4142 52.5045 33.049 52.5045C30.6836 52.5045 28.766 50.6163 28.766 48.2869V45.6577" stroke="black" stroke-linecap="round" stroke-linejoin="round"/>
<path fill-rule="evenodd" clip-rule="evenodd" d="M30.7986 40.1508C30.0711 40.1508 29.3634 40.0696 28.697 39.902C27.8384 39.6859 27.3197 38.824 27.5392 37.9779C27.7581 37.1318 28.6317 36.6215 29.493 36.8372C31.3472 37.3047 33.9589 36.6458 35.8427 35.2362C37.1531 34.2552 37.9185 33.0606 37.9421 31.9578C37.9764 30.3221 33.1378 28.0912 28.773 27.1123C27.9085 26.9183 27.3668 26.0712 27.5632 25.2198C27.7597 24.3679 28.6178 23.8329 29.4845 24.0279C31.4516 24.4676 41.2615 26.9183 41.1528 32.0243C41.1083 34.1281 39.912 36.1635 37.7858 37.7549C35.727 39.2953 33.1576 40.1508 30.7986 40.1508Z" fill="#FCE47E"/>
<path d="M30.7986 40.1508C30.0711 40.1508 29.3634 40.0696 28.697 39.902C27.8384 39.6859 27.3197 38.824 27.5392 37.9779C27.7581 37.1318 28.6317 36.6215 29.493 36.8372C31.3472 37.3047 33.9589 36.6458 35.8427 35.2362C37.1531 34.2552 37.9185 33.0606 37.9421 31.9578C37.9764 30.3221 33.1378 28.0912 28.773 27.1123C27.9085 26.9183 27.3668 26.0712 27.5632 25.2198C27.7597 24.3679 28.6178 23.8329 29.4845 24.0279C31.4516 24.4676 41.2615 26.9183 41.1528 32.0243C41.1083 34.1281 39.912 36.1635 37.7858 37.7549C35.727 39.2953 33.1576 40.1508 30.7986 40.1508Z" stroke="black"/>
<path fill-rule="evenodd" clip-rule="evenodd" d="M26.028 51.017C33.0912 51.017 38.8709 45.3258 38.8709 38.3696V26.4433C38.8709 19.487 33.0912 13.7959 26.028 13.7959C18.9643 13.7959 13.1852 19.487 13.1852 26.4433V38.3696C13.1852 45.3258 18.9643 51.017 26.028 51.017Z" fill="#A5BFC4"/>
<mask id="mask1_824_2651" style="mask-type:alpha" maskUnits="userSpaceOnUse" x="24" y="34" width="12" height="18">
<path fill-rule="evenodd" clip-rule="evenodd" d="M35.5919 46.7879C33.2357 49.3796 29.8165 51.0169 26.0277 51.0169C25.6673 51.0169 25.3102 51.0021 24.9572 50.973V34.2827H35.5919V46.7879Z" fill="white"/>
</mask>
<g mask="url(#mask1_824_2651)">
<path fill-rule="evenodd" clip-rule="evenodd" d="M30.2748 56.053C33.2109 56.053 35.5919 53.7087 35.5919 50.8168V39.5189C35.5919 36.627 33.2109 34.2827 30.2748 34.2827C27.3381 34.2827 24.9572 36.627 24.9572 39.5189V50.8168C24.9572 53.7087 27.3381 56.053 30.2748 56.053Z" fill="white" fill-opacity="0.24"/>
</g>
<mask id="mask2_824_2651" style="mask-type:alpha" maskUnits="userSpaceOnUse" x="13" y="27" width="26" height="25">
<path fill-rule="evenodd" clip-rule="evenodd" d="M13.2189 27.8057V38.3697C13.2189 45.3259 18.998 51.0171 26.0618 51.0171C33.1256 51.0171 38.9046 45.3259 38.9046 38.3697V27.8057H13.2189Z" fill="white"/>
</mask>
<g mask="url(#mask2_824_2651)">
<path fill-rule="evenodd" clip-rule="evenodd" d="M13.5005 39.0054C13.5005 45.6394 18.9616 51.0174 25.6981 51.0174H27.4762C34.2127 51.0174 39.6738 45.6394 39.6738 39.0054H13.5005Z" fill="#0BAF17"/>
<path fill-rule="evenodd" clip-rule="evenodd" d="M38.8709 39.5501H12.7216V27.8057L27.6591 31.0134L29.7425 35.977C29.8886 36.3239 30.3875 36.3239 30.5331 35.9765L32.618 30.9907L38.8709 27.8057V39.5501Z" fill="white"/>
<path fill-rule="evenodd" clip-rule="evenodd" d="M25.5548 39.0772H22.8881V29.6338L25.5548 30.1783V39.0772Z" fill="#0BAF17"/>
<path fill-rule="evenodd" clip-rule="evenodd" d="M36.771 38.9697H34.1036V30.1973L36.771 28.8612V38.9697Z" fill="#0BAF17"/>
</g>
<path d="M13.3022 39.4116H38.776" stroke="black"/>
<path opacity="0.42" fill-rule="evenodd" clip-rule="evenodd" d="M27.9738 21.8776C28.7387 23.2034 28.2676 24.8882 26.9218 25.642C26.0579 26.126 23.7968 26.0827 22.2895 25.9894C21.5828 25.9457 21.1546 25.204 21.4779 24.5835C22.1679 23.2604 23.2866 21.3252 24.1507 20.8418C25.4969 20.088 27.2082 20.5519 27.9738 21.8776Z" fill="white"/>
<path opacity="0.42" fill-rule="evenodd" clip-rule="evenodd" d="M31.9095 22.0578C32.5983 20.6925 34.2813 20.1358 35.6677 20.8148C36.5579 21.2502 37.7837 23.121 38.5471 24.4047C38.9052 25.0061 38.5197 25.7705 37.8164 25.8527C36.316 26.0278 34.0618 26.1949 33.1717 25.7589C31.7853 25.0799 31.22 23.4231 31.9095 22.0578Z" fill="white"/>
<path fill-rule="evenodd" clip-rule="evenodd" d="M36.2797 23.1468C36.2797 23.8247 35.7208 24.3745 35.0325 24.374C34.3441 24.374 33.7858 23.8241 33.7858 23.1457C33.7863 22.4673 34.3446 21.918 35.0336 21.918C35.722 21.9185 36.2803 22.4683 36.2797 23.1468Z" fill="black"/>
<path fill-rule="evenodd" clip-rule="evenodd" d="M27.986 23.1468C27.9855 23.8247 27.4272 24.3745 26.7383 24.374C26.0499 24.374 25.4916 23.8241 25.4921 23.1457C25.4921 22.4673 26.051 21.918 26.7394 21.918C27.4283 21.9185 27.986 22.4683 27.986 23.1468Z" fill="black"/>
<path d="M26.028 51.0174C33.0912 51.0174 38.8709 45.3263 38.8709 38.37V26.4438C38.8709 19.4875 33.0912 13.7964 26.028 13.7964C18.9643 13.7964 13.1852 19.4875 13.1852 26.4438V38.37C13.1852 45.3263 18.9643 51.0174 26.028 51.0174Z" stroke="black"/>
<path fill-rule="evenodd" clip-rule="evenodd" d="M14.8889 40.1513C14.1615 40.1513 13.4538 40.0701 12.7874 39.9025C11.9288 39.6864 11.4101 38.8245 11.6295 37.9784C11.8485 37.1323 12.7221 36.622 13.5834 36.8376C15.4377 37.3052 18.0493 36.6463 19.9331 35.2367C21.2434 34.2557 22.009 33.0611 22.0326 31.9583C22.0668 30.3226 17.2282 28.0917 12.8634 27.1128C11.9989 26.9188 11.4572 26.0716 11.6536 25.2203C11.8501 24.3684 12.7082 23.8334 13.5748 24.0284C15.5421 24.468 25.3519 26.9188 25.2432 32.0248C25.1988 34.1286 24.0024 36.1639 21.8762 37.7554C19.8174 39.2957 17.248 40.1513 14.8889 40.1513Z" fill="#FCE47E" stroke="black"/>
<path fill-rule="evenodd" clip-rule="evenodd" d="M30.177 12.0098C29.5533 10.1927 27.8093 8.8833 25.7533 8.8833C23.6977 8.8833 21.9537 10.1927 21.3307 12.0098H30.177Z" fill="#1DCC70" stroke="black"/>
<path fill-rule="evenodd" clip-rule="evenodd" d="M24.4305 11.6168C23.9943 11.6168 23.6373 11.2652 23.6373 10.8355V8.58987C23.6373 8.15971 23.9943 7.80811 24.4305 7.80811C24.8668 7.80811 25.2238 8.15971 25.2238 8.58987V10.8355C25.2238 11.2652 24.8668 11.6168 24.4305 11.6168Z" fill="#FD4242"/>
<path fill-rule="evenodd" clip-rule="evenodd" d="M31.4237 12.8323C31.4237 13.8781 30.5548 14.7337 29.4929 14.7337H21.9569C20.8955 14.7337 20.0261 13.8781 20.0261 12.8323C20.0261 12.3736 20.4041 12.0015 20.8698 12.0015H30.58C31.0457 12.0015 31.4237 12.3736 31.4237 12.8323Z" fill="#0BAF17"/>
<path d="M31.4237 12.8323C31.4237 13.8781 30.5548 14.7337 29.4929 14.7337H21.9569C20.8955 14.7337 20.0261 13.8781 20.0261 12.8323C20.0261 12.3736 20.4041 12.0015 20.8698 12.0015H30.58C31.0457 12.0015 31.4237 12.3736 31.4237 12.8323Z" stroke="black"/>
<path fill-rule="evenodd" clip-rule="evenodd" d="M24.9377 48.4194C24.9377 50.6756 23.0802 52.5049 20.7891 52.5049C18.4986 52.5049 16.6411 50.6756 16.6411 48.4194" fill="#0BAF17"/>
<path fill-rule="evenodd" clip-rule="evenodd" d="M24.9377 46.1953V48.4199C24.9377 50.6761 23.0802 52.5048 20.7891 52.5048C18.4986 52.5048 16.6411 50.6761 16.6411 48.4199V46.4462" fill="#0BAF17"/>
<path fill-rule="evenodd" clip-rule="evenodd" d="M24.9377 48.4194C24.9377 50.6756 23.0802 52.5049 20.7891 52.5049C18.4986 52.5049 16.6411 50.6756 16.6411 48.4194" fill="#A5BFC4"/>
<path d="M23.5704 33.4383L22.7781 32.6576L20.5317 30.4453L15.5008 34.3851L19.0552 37.8854C20.3018 39.1136 22.3237 39.1136 23.5704 37.8854C24.8181 36.6576 24.8181 34.6666 23.5704 33.4383Z" fill="white"/>
<path fill-rule="evenodd" clip-rule="evenodd" d="M22.7781 32.6582L23.5704 33.4389C24.8181 34.6672 24.8181 36.6582 23.5704 37.886C22.3237 39.1142 20.3018 39.1142 19.0551 37.886L18.1896 37.0341" fill="#A5BFC4"/>
<path fill-rule="evenodd" clip-rule="evenodd" d="M44.9507 52.505C44.0653 52.505 43.3449 51.7954 43.3449 50.9235V21.4516C43.3449 20.5791 44.0653 19.8701 44.9507 19.8701C45.8361 19.8701 46.5567 20.5791 46.5567 21.4516V23.7563C46.7692 23.6561 47.0042 23.6034 47.2467 23.6034C47.6754 23.6034 48.079 23.7679 48.382 24.0668C48.6855 24.3657 48.8525 24.7626 48.8525 25.1849C48.8525 25.6076 48.6855 26.0046 48.382 26.3035L46.5567 28.101V50.9235C46.5567 51.7954 45.8361 52.505 44.9507 52.505Z" fill="#FCE47E"/>
<path d="M44.9507 52.505C44.0653 52.505 43.3449 51.7954 43.3449 50.9235V21.4516C43.3449 20.5791 44.0653 19.8701 44.9507 19.8701C45.8361 19.8701 46.5567 20.5791 46.5567 21.4516V23.7563C46.7692 23.6561 47.0042 23.6034 47.2467 23.6034C47.6754 23.6034 48.079 23.7679 48.382 24.0668C48.6855 24.3657 48.8525 24.7626 48.8525 25.1849C48.8525 25.6076 48.6855 26.0046 48.382 26.3035L46.5567 28.101V50.9235C46.5567 51.7954 45.8361 52.505 44.9507 52.505Z" stroke="black"/>
<path fill-rule="evenodd" clip-rule="evenodd" d="M28.8121 25.2199C29.6515 24.8388 30.6257 24.8388 31.4651 25.2199C31.9805 25.454 32.0898 26.1303 31.6888 26.5257L30.7216 27.4777C30.3998 27.7951 29.8773 27.7951 29.5556 27.4777L28.5884 26.5257C28.1869 26.1303 28.2967 25.454 28.8121 25.2199Z" fill="black"/>
<path fill-rule="evenodd" clip-rule="evenodd" d="M5.30579 38.8566C3.14212 38.8566 1.38849 37.1296 1.38849 34.9989V32.2429C1.38849 30.1127 3.14212 28.3853 5.30579 28.3853C7.46892 28.3853 9.22255 30.1127 9.22255 32.2429V34.9989C9.22255 37.1296 7.46892 38.8566 5.30579 38.8566Z" fill="#FCE47E"/>
<path d="M5.30579 38.8566C3.14212 38.8566 1.38849 37.1296 1.38849 34.9989V32.2429C1.38849 30.1127 3.14212 28.3853 5.30579 28.3853C7.46892 28.3853 9.22255 30.1127 9.22255 32.2429V34.9989C9.22255 37.1296 7.46892 38.8566 5.30579 38.8566Z" stroke="black"/>
<path fill-rule="evenodd" clip-rule="evenodd" d="M10.5694 22.4334C10.5694 24.5826 8.80019 26.3248 6.61779 26.3248C4.43538 26.3248 2.66623 24.5826 2.66623 22.4334C2.66623 20.2842 4.43538 18.542 6.61779 18.542C8.80019 18.542 10.5694 20.2842 10.5694 22.4334Z" fill="#FD4242"/>
<path d="M10.5694 22.4334C10.5694 24.5826 8.80019 26.3248 6.61779 26.3248C4.43538 26.3248 2.66623 24.5826 2.66623 22.4334C2.66623 20.2842 4.43538 18.542 6.61779 18.542C8.80019 18.542 10.5694 20.2842 10.5694 22.4334Z" stroke="black"/>
<path d="M15.5002 34.3851L19.0546 37.8854C20.3014 39.1136 22.3232 39.1136 23.5698 37.8854C24.8176 36.6576 24.8176 34.6666 23.5698 33.4383L22.7777 32.6576L20.5312 30.4453" stroke="black" stroke-linecap="round"/>
<path fill-rule="evenodd" clip-rule="evenodd" d="M28.4966 34.8552C28.19 35.291 28.11 35.9294 28.4595 36.3328C28.6228 36.5213 28.8909 36.6409 29.1318 36.5682C29.404 36.4863 29.5524 36.2008 29.638 35.9336C29.8193 35.3682 29.8534 34.7692 29.8863 34.1773C29.8878 34.5686 29.8901 34.9651 29.9907 35.3437C30.0912 35.7223 30.3024 36.0876 30.6393 36.2954C30.9762 36.5031 31.4498 36.5178 31.754 36.2656C32.0299 36.0367 32.1146 35.6439 32.0652 35.2922C31.9999 34.8266 31.6044 34.3941 31.205 34.1366C30.2151 33.4985 29.1269 33.9593 28.4966 34.8552Z" stroke="black" stroke-linecap="round" stroke-linejoin="round"/>
<path d="M27.0911 33.5947C28.9433 33.7032 30.8282 33.6601 32.6547 33.4677" stroke="black" stroke-linecap="round" stroke-linejoin="round"/>
<path d="M1.38849 32.4473H9.3782" stroke="black"/>
<path d="M25.2067 45.6582V48.2875C25.2067 50.6169 23.2893 52.5051 20.9241 52.5051C18.5587 52.5051 16.6411 50.6169 16.6411 48.2875V45.6582" stroke="black" stroke-linecap="round" stroke-linejoin="round"/>
<path d="M16.6774 48.0093H25.1704" stroke="black"/>
<path d="M30.1384 26.6289V28.9034" stroke="black" stroke-linecap="round"/>
<path d="M28.1824 28.5049C29.2628 29.5688 31.0142 29.5688 32.0947 28.5049" stroke="black" stroke-linecap="round"/>
<path d="M17.0067 19.2295C15.5388 17.8122 15.5388 15.4921 17.0067 14.0748L17.2705 13.8201C17.7468 13.3601 18.5188 13.3601 18.9951 13.8201L21.7445 16.4748" fill="#A5BFC4"/>
<path d="M17.0067 19.2295C15.5388 17.8122 15.5388 15.4921 17.0067 14.0748L17.2705 13.8201C17.7468 13.3601 18.5188 13.3601 18.9951 13.8201L21.7445 16.4748" stroke="black" stroke-miterlimit="10" stroke-linecap="round"/>
</g>
<defs>
<clipPath id="clip0_824_2651">
<rect width="50.7726" height="56" fill="white" transform="translate(0.373047)"/>
</clipPath>
</defs>
</svg>
