<svg width="28" height="28" viewBox="0 0 28 28" fill="none" xmlns="http://www.w3.org/2000/svg">
<mask id="mask0_824_2748" style="mask-type:alpha" maskUnits="userSpaceOnUse" x="0" y="0" width="28" height="28">
<rect width="28" height="28" fill="#1C1B1F"/>
</mask>
<g mask="url(#mask0_824_2748)">
<path d="M14 24.5C12.8 23.3667 11.425 22.5 9.875 21.9C8.325 21.3 6.7 21 5 21V10C6.68333 10 8.3 10.304 9.85 10.912C11.4 11.5207 12.7833 12.4 14 13.55C15.2167 12.4 16.6 11.5207 18.15 10.912C19.7 10.304 21.3167 10 23 10V21C21.2833 21 19.6543 21.3 18.113 21.9C16.571 22.5 15.2 23.3667 14 24.5ZM14 21.9C15.05 21.1167 16.1667 20.4917 17.35 20.025C18.5333 19.5583 19.75 19.25 21 19.1V12.2C19.7833 12.4167 18.5877 12.854 17.413 13.512C16.2377 14.1707 15.1 15.05 14 16.15C12.9 15.05 11.7627 14.1707 10.588 13.512C9.41267 12.854 8.21667 12.4167 7 12.2V19.1C8.25 19.25 9.46667 19.5583 10.65 20.025C11.8333 20.4917 12.95 21.1167 14 21.9ZM14 11C12.9 11 11.9583 10.6083 11.175 9.825C10.3917 9.04167 10 8.1 10 7C10 5.9 10.3917 4.95833 11.175 4.175C11.9583 3.39167 12.9 3 14 3C15.1 3 16.0417 3.39167 16.825 4.175C17.6083 4.95833 18 5.9 18 7C18 8.1 17.6083 9.04167 16.825 9.825C16.0417 10.6083 15.1 11 14 11ZM14 9C14.55 9 15.021 8.804 15.413 8.412C15.8043 8.02067 16 7.55 16 7C16 6.45 15.8043 5.979 15.413 5.587C15.021 5.19567 14.55 5 14 5C13.45 5 12.9793 5.19567 12.588 5.587C12.196 5.979 12 6.45 12 7C12 7.55 12.196 8.02067 12.588 8.412C12.9793 8.804 13.45 9 14 9Z" fill="#82ACF5"/>
</g>
</svg>
