<svg width="920" height="242" viewBox="0 0 920 242" fill="none" xmlns="http://www.w3.org/2000/svg">
<rect width="920" height="242" rx="8" fill="#BEE8FF"/>
<rect width="920" height="128" transform="translate(0 114)" fill="#E5D1FF"/>
<path d="M811.086 148.468H822.901C825.075 148.468 826.597 148.262 826.597 150.453V146.483C826.597 144.292 825.075 142.513 822.901 142.513H807.148C803.21 142.513 800.093 146.731 801.241 152.438C801.241 152.438 804.768 171.046 805.016 172.203C805.671 175.264 809.198 178.242 812.973 178.242H826.674C828.85 178.242 826.597 174.478 826.597 172.287V168.317C826.597 170.508 825.075 172.287 822.901 172.287H815.025C812.851 172.287 811.415 170.219 811.086 168.317C810.758 166.415 807.967 153.762 807.967 153.762C807.312 149.957 808.911 148.468 811.086 148.468ZM861.913 148.468H850.098C847.924 148.468 844.319 148.262 844.319 150.453V146.483C844.319 144.292 847.924 142.513 850.098 142.513H865.851C869.789 142.513 872.908 146.731 871.758 152.438C871.758 152.438 868.543 171.134 868.271 172.287C867.574 175.264 864.25 178.242 860.395 178.242H846.324C844.15 178.242 844.319 174.478 844.319 172.287V168.317C844.319 170.508 847.924 172.287 850.098 172.287H857.975C860.149 172.287 861.586 170.219 861.913 168.317C862.24 166.415 865.032 153.762 865.032 153.762C865.686 149.957 864.089 148.468 861.913 148.468ZM842.019 182.211C842.019 168.4 836.685 182.211 836.685 182.211C836.685 182.211 830.777 168.4 830.777 182.211C830.777 196.022 824.297 202.06 824.297 202.06H848.501C848.501 202.06 842.019 196.022 842.019 182.211Z" fill="#82ACF5"/>
<path d="M854.165 204.045C854.165 206.237 854.612 208.015 852.438 208.015H820.932C818.756 208.015 818.721 206.237 818.721 204.045V202.06C818.721 199.869 821.013 198.091 823.064 198.091H850.469C852.52 198.091 854.165 199.869 854.165 202.06V204.045Z" fill="#828282"/>
<path d="M858.103 207.271C858.103 208.779 858.428 210 855.637 210H817.732C815.188 210 814.782 208.779 814.782 207.271V206.775C814.782 205.266 816.236 204.045 817.732 204.045H855.637C857.132 204.045 858.103 205.266 858.103 206.775V207.271Z" fill="#828282"/>
<path fill-rule="evenodd" clip-rule="evenodd" d="M836.685 187.708C845.014 187.708 858.345 165.046 858.345 151.598C858.345 140.358 856.212 138.998 850.469 139L836.685 139.002C834.564 139.002 830.878 139.018 827.524 139.032C824.727 139.044 822.162 139.056 820.932 139.056C816.994 139.056 815.025 141.287 815.025 151.598C815.025 165.046 828.354 187.708 836.685 187.708Z" fill="#2D9CDB"/>
<path d="M245.75 99.5961C245.75 99.5961 246.794 96.4594 249.256 94.4914C249.729 94.1139 250.621 93.7354 251.756 93.3702C260.446 90.5729 270.242 92.7838 276.97 98.9546C278.027 99.9235 278.881 100.837 279.361 101.604C280.947 104.139 283.361 112.427 281.68 116.951C277.676 127.728 267.286 126.482 264.579 125.867C263.307 125.579 260.209 124.759 260.209 124.759C260.209 124.759 253.132 130.602 244.616 126.121C238.132 122.709 238.935 117.609 238.935 117.609C238.935 117.609 234.57 113.243 236.46 107.163C238.737 99.8411 245.75 99.5961 245.75 99.5961Z" fill="#BA68C8"/>
<path d="M248.771 119.495C248.771 119.495 250.189 119.413 250.773 119.246C251.357 119.078 252.148 118.58 252.148 118.58C252.148 118.58 257.627 124.312 258.194 124.793C258.748 125.261 259.401 118.12 259.401 118.12C259.401 118.12 260.652 118.313 261.82 118.129C263.359 117.884 264.407 117.394 264.407 117.394C264.407 117.394 263.659 121.79 263.367 123.457C263.182 124.527 263.118 127.5 263.118 127.5L259.113 130.834L256.067 128.789C256.067 128.789 256.058 127.986 255.607 127.44C254.206 125.747 248.771 119.495 248.771 119.495ZM262.74 129.296L265.786 125.627C265.786 125.627 266.869 125.708 267.664 125.708C268.455 125.708 269.834 125.541 269.834 125.541C269.834 125.541 267.333 128.918 265.997 130.585C264.661 132.252 262.912 134.341 262.912 134.341L261.245 129.502L262.74 129.296Z" fill="#6D4B41"/>
<path d="M260.574 126.374C259.328 126.486 256.071 128.793 256.071 128.793C256.071 128.793 256.239 132.712 256.114 134.925C255.989 137.138 255.117 140.752 255.921 141.667C256.617 142.457 262.469 142.608 263.341 141.688C264.218 140.769 263.367 136.97 263.367 134.508C263.367 132.046 263.118 127.5 263.118 127.5C263.118 127.5 261.992 126.25 260.574 126.374Z" fill="#865B50"/>
<path d="M569.75 96.5961C569.75 96.5961 570.794 93.4594 573.256 91.4914C573.729 91.1139 574.621 90.7354 575.756 90.3702C584.446 87.5729 594.242 89.7838 600.97 95.9546C602.027 96.9235 602.881 97.8372 603.361 98.6042C604.947 101.139 607.361 109.427 605.68 113.951C601.676 124.728 591.286 123.482 588.579 122.867C587.307 122.579 584.209 121.759 584.209 121.759C584.209 121.759 577.132 127.602 568.616 123.121C562.132 119.709 562.935 114.609 562.935 114.609C562.935 114.609 558.57 110.243 560.46 104.163C562.738 96.8411 569.75 96.5961 569.75 96.5961Z" fill="#BA68C8"/>
<path d="M572.771 116.495C572.771 116.495 574.189 116.413 574.773 116.246C575.357 116.078 576.148 115.58 576.148 115.58C576.148 115.58 581.627 121.312 582.194 121.793C582.748 122.261 583.401 115.12 583.401 115.12C583.401 115.12 584.652 115.313 585.82 115.129C587.359 114.884 588.407 114.394 588.407 114.394C588.407 114.394 587.659 118.79 587.367 120.457C587.182 121.527 587.118 124.5 587.118 124.5L583.113 127.834L580.067 125.789C580.067 125.789 580.058 124.986 579.607 124.44C578.206 122.747 572.771 116.495 572.771 116.495ZM586.74 126.296L589.786 122.627C589.786 122.627 590.869 122.708 591.664 122.708C592.455 122.708 593.834 122.541 593.834 122.541C593.834 122.541 591.333 125.918 589.997 127.585C588.661 129.252 586.912 131.341 586.912 131.341L585.245 126.502L586.74 126.296Z" fill="#6D4B41"/>
<path d="M584.574 123.374C583.328 123.486 580.071 125.793 580.071 125.793C580.071 125.793 580.239 129.712 580.114 131.925C579.989 134.138 579.117 137.752 579.921 138.667C580.617 139.457 586.469 139.608 587.341 138.688C588.218 137.769 587.367 133.97 587.367 131.508C587.367 129.046 587.118 124.5 587.118 124.5C587.118 124.5 585.992 123.25 584.574 123.374Z" fill="#865B50"/>
<path d="M613.75 80.5961C613.75 80.5961 614.794 77.4594 617.256 75.4914C617.729 75.1139 618.621 74.7354 619.756 74.3702C628.446 71.5729 638.242 73.7838 644.97 79.9546C646.027 80.9235 646.881 81.8372 647.361 82.6042C648.947 85.1394 651.361 93.4266 649.68 97.9512C645.676 108.728 635.286 107.482 632.579 106.867C631.307 106.579 628.209 105.759 628.209 105.759C628.209 105.759 621.132 111.602 612.616 107.121C606.132 103.709 606.935 98.6086 606.935 98.6086C606.935 98.6086 602.57 94.243 604.46 88.1629C606.738 80.8411 613.75 80.5961 613.75 80.5961Z" fill="#BA68C8"/>
<path d="M616.771 100.495C616.771 100.495 618.189 100.413 618.773 100.246C619.357 100.078 620.148 99.5797 620.148 99.5797C620.148 99.5797 625.627 105.312 626.194 105.793C626.748 106.261 627.401 99.12 627.401 99.12C627.401 99.12 628.652 99.3133 629.82 99.1286C631.359 98.8836 632.407 98.3938 632.407 98.3938C632.407 98.3938 631.659 102.79 631.367 104.457C631.182 105.527 631.118 108.5 631.118 108.5L627.113 111.834L624.067 109.789C624.067 109.789 624.058 108.986 623.607 108.44C622.206 106.747 616.771 100.495 616.771 100.495ZM630.74 110.296L633.786 106.627C633.786 106.627 634.869 106.708 635.664 106.708C636.455 106.708 637.834 106.541 637.834 106.541C637.834 106.541 635.333 109.918 633.997 111.585C632.661 113.252 630.912 115.341 630.912 115.341L629.245 110.502L630.74 110.296Z" fill="#6D4B41"/>
<path d="M628.574 107.374C627.328 107.486 624.071 109.793 624.071 109.793C624.071 109.793 624.239 113.712 624.114 115.925C623.989 118.138 623.117 121.752 623.921 122.667C624.617 123.457 630.469 123.608 631.341 122.688C632.218 121.769 631.367 117.97 631.367 115.508C631.367 113.046 631.118 108.5 631.118 108.5C631.118 108.5 629.992 107.25 628.574 107.374Z" fill="#865B50"/>
<path d="M384.119 32.055H384.115C384.115 32.0287 384.119 32.0025 384.119 31.9762C384.119 28.395 381.216 25.4887 377.631 25.4887C377.17 25.4887 376.72 25.5375 376.289 25.6312C375.003 22.5037 371.931 20.2987 368.339 20.2987C365.643 20.2987 363.239 21.5437 361.664 23.4862C360.618 22.9545 359.462 22.6769 358.289 22.6762C354.408 22.6762 351.22 25.6312 350.849 29.415C346.63 29.64 343.244 33.0975 343.188 37.3912C343.128 41.8612 346.709 45.5362 351.179 45.5925C351.528 45.5962 351.865 45.5737 352.203 45.5325C353.931 49.1775 357.64 51.6975 361.941 51.6975C364.536 51.6975 366.914 50.7787 368.774 49.2525C370.195 50.3062 371.95 50.9362 373.855 50.9362C377.763 50.9362 381.051 48.315 382.075 44.7337C382.72 44.9475 383.406 45.0675 384.123 45.0675C387.715 45.0675 390.629 42.1537 390.629 38.5612C390.625 34.9687 387.715 32.055 384.119 32.055Z" fill="#E3EBEE"/>
<path d="M387.944 33.2963C389.417 34.785 388.375 38.1975 387.362 39.3113C385.367 41.4975 381.707 40.9875 380.237 40.6725C379.84 40.5863 379.776 40.6163 379.645 40.695C379.529 40.7663 379.476 40.8788 379.349 41.145C378.876 42.165 377.654 44.1413 375.074 44.9363C372.385 45.765 369.85 44.5013 368.665 43.7475C368.215 43.4625 368.196 43.455 367.994 43.4588C367.787 43.4625 367.585 43.6125 367.341 43.8038C366.269 44.6475 363.82 46.1363 360.044 45.9188C356.342 45.705 354.224 43.425 353.496 42.2513C353.357 42.0263 353.207 41.8388 353.035 41.82C352.836 41.8013 352.615 42.0038 352.45 42.1688C350.875 43.7025 345.917 44.1638 344.275 41.55C345.947 44.2313 348.531 45.5588 351.182 45.5925C351.531 45.5963 351.869 45.5738 352.206 45.5325C353.935 49.1775 357.644 51.6975 361.945 51.6975C364.54 51.6975 366.917 50.7788 368.777 49.2525C370.199 50.3063 371.954 50.9363 373.859 50.9363C377.766 50.9363 381.055 48.315 382.079 44.7338C382.724 44.9475 383.41 45.0675 384.126 45.0675C387.719 45.0675 390.632 42.1538 390.632 38.5613C390.625 36.6488 389.665 34.4888 387.944 33.2963Z" fill="#B9CDD2"/>
<path d="M612.126 57.2056H612.123C612.123 57.187 612.126 57.1685 612.126 57.1499C612.126 54.6131 610.07 52.5545 607.53 52.5545C607.204 52.5545 606.885 52.5891 606.58 52.6555C605.668 50.4402 603.493 48.8783 600.948 48.8783C599.038 48.8783 597.336 49.7602 596.22 51.1361C595.479 50.7595 594.66 50.5629 593.83 50.5624C591.08 50.5624 588.822 52.6555 588.56 55.3356C585.571 55.495 583.173 57.9441 583.133 60.9855C583.09 64.1517 585.627 66.7549 588.793 66.7947C589.04 66.7974 589.279 66.7814 589.518 66.7522C590.743 69.3341 593.37 71.1191 596.417 71.1191C598.255 71.1191 599.939 70.4683 601.256 69.3872C602.263 70.1336 603.506 70.5799 604.856 70.5799C607.623 70.5799 609.953 68.7231 610.678 66.1864C611.135 66.3378 611.621 66.4228 612.128 66.4228C614.673 66.4228 616.737 64.3589 616.737 61.8142C616.734 59.2695 614.673 57.2056 612.126 57.2056Z" fill="#E3EBEE"/>
<path d="M614.835 58.0848C615.879 59.1394 615.141 61.5566 614.423 62.3455C613.01 63.8941 610.418 63.5328 609.377 63.3097C609.095 63.2486 609.05 63.2698 608.957 63.3256C608.875 63.3761 608.837 63.4558 608.747 63.6444C608.412 64.3669 607.546 65.7667 605.719 66.3298C603.814 66.9169 602.019 66.0217 601.179 65.4878C600.861 65.2859 600.847 65.2806 600.704 65.2833C600.558 65.2859 600.414 65.3922 600.242 65.5277C599.482 66.1253 597.748 67.1798 595.073 67.0258C592.451 66.8744 590.95 65.2594 590.435 64.428C590.337 64.2686 590.23 64.1358 590.108 64.1225C589.967 64.1092 589.811 64.2527 589.694 64.3695C588.578 65.4559 585.067 65.7827 583.903 63.9312C585.088 65.8305 586.918 66.7708 588.796 66.7947C589.043 66.7973 589.282 66.7814 589.521 66.7522C590.746 69.3341 593.373 71.1191 596.419 71.1191C598.258 71.1191 599.942 70.4683 601.259 69.3872C602.266 70.1336 603.509 70.5798 604.858 70.5798C607.626 70.5798 609.956 68.7231 610.681 66.1864C611.138 66.3378 611.624 66.4228 612.131 66.4228C614.676 66.4228 616.74 64.3589 616.74 61.8142C616.734 60.4595 616.054 58.9295 614.835 58.0848Z" fill="#B9CDD2"/>
<path d="M385 78.8712C385 78.8712 386.367 74.765 389.59 72.1887C390.722 71.2841 393.699 70.375 397.085 69.5761C405.971 67.48 415.383 69.5214 422.529 75.2028C425.372 77.4633 427.915 79.7674 429 81.5C431.076 84.8188 434.236 95.6675 432.036 101.591C426.794 115.698 413.193 114.067 409.649 113.262C407.984 112.886 403.928 111.811 403.928 111.811C403.928 111.811 394.664 119.461 383.515 113.594C375.027 109.128 376.079 102.451 376.079 102.451C376.079 102.451 370.364 96.7362 372.839 88.7768C375.82 79.1918 385 78.8712 385 78.8712Z" fill="#BA68C8"/>
<path d="M388.954 104.921C388.954 104.921 390.811 104.814 391.576 104.594C392.341 104.375 393.376 103.723 393.376 103.723C393.376 103.723 400.547 111.226 401.29 111.856C402.016 112.469 402.871 103.121 402.871 103.121C402.871 103.121 404.507 103.374 406.037 103.132C408.051 102.811 409.424 102.17 409.424 102.17C409.424 102.17 408.445 107.924 408.062 110.107C407.821 111.508 407.736 115.4 407.736 115.4L402.494 119.765L398.506 117.088C398.506 117.088 398.494 116.036 397.904 115.321C396.07 113.105 388.954 104.921 388.954 104.921ZM407.241 117.751L411.229 112.948C411.229 112.948 412.647 113.054 413.687 113.054C414.722 113.054 416.528 112.835 416.528 112.835C416.528 112.835 413.254 117.256 411.505 119.439C409.756 121.621 407.466 124.355 407.466 124.355L405.284 118.021L407.241 117.751Z" fill="#6D4B41"/>
<path d="M404.406 113.926C402.775 114.072 398.511 117.093 398.511 117.093C398.511 117.093 398.731 122.223 398.568 125.12C398.404 128.017 397.263 132.747 398.314 133.946C399.226 134.981 406.887 135.177 408.029 133.974C409.176 132.77 408.063 127.797 408.063 124.574C408.063 121.351 407.736 115.4 407.736 115.4C407.736 115.4 406.263 113.763 404.406 113.926Z" fill="#865B50"/>
</svg>
