<svg width="24" height="24" viewBox="0 0 24 24" fill="none" xmlns="http://www.w3.org/2000/svg">
<mask id="mask0_824_2759" style="mask-type:alpha" maskUnits="userSpaceOnUse" x="0" y="0" width="24" height="24">
<rect width="24" height="24" fill="#D9D9D9"/>
</mask>
<g mask="url(#mask0_824_2759)">
<path d="M4.72499 20C3.72499 20 2.87082 19.6417 2.16249 18.925C1.45415 18.2083 1.08332 17.3417 1.04999 16.325C1.04999 16.175 1.05832 16.025 1.07499 15.875C1.09165 15.725 1.11665 15.575 1.14999 15.425L3.24999 7.025C3.48332 6.125 3.95832 5.39583 4.67499 4.8375C5.39165 4.27917 6.20832 4 7.12499 4H16.875C17.7917 4 18.6083 4.27917 19.325 4.8375C20.0417 5.39583 20.5167 6.125 20.75 7.025L22.85 15.425C22.8833 15.575 22.9125 15.7292 22.9375 15.8875C22.9625 16.0458 22.975 16.2 22.975 16.35C22.975 17.3667 22.6125 18.2292 21.8875 18.9375C21.1625 19.6458 20.2917 20 19.275 20C18.575 20 17.925 19.8167 17.325 19.45C16.725 19.0833 16.275 18.5833 15.975 17.95L15.275 16.5C15.1917 16.3333 15.0667 16.2083 14.9 16.125C14.7333 16.0417 14.5583 16 14.375 16H9.62499C9.44166 16 9.26666 16.0417 9.09999 16.125C8.93332 16.2083 8.80832 16.3333 8.72499 16.5L8.02499 17.95C7.72499 18.5833 7.27499 19.0833 6.67499 19.45C6.07499 19.8167 5.42499 20 4.72499 20ZM4.79999 18C5.11665 18 5.40415 17.9167 5.66249 17.75C5.92082 17.5833 6.11665 17.3583 6.24999 17.075L6.94999 15.65C7.19999 15.1333 7.56665 14.7292 8.04999 14.4375C8.53332 14.1458 9.05832 14 9.62499 14H14.375C14.9417 14 15.4667 14.15 15.95 14.45C16.4333 14.75 16.8083 15.15 17.075 15.65L17.775 17.075C17.9083 17.3583 18.1042 17.5833 18.3625 17.75C18.6208 17.9167 18.9083 18 19.225 18C19.6917 18 20.0917 17.8458 20.425 17.5375C20.7583 17.2292 20.9333 16.8417 20.95 16.375C20.95 16.3917 20.9333 16.2333 20.9 15.9L18.8 7.525C18.6833 7.075 18.45 6.70833 18.1 6.425C17.75 6.14167 17.3417 6 16.875 6H7.12499C6.65832 6 6.24582 6.14167 5.88749 6.425C5.52915 6.70833 5.29999 7.075 5.19999 7.525L3.09999 15.9C3.06665 16 3.04999 16.15 3.04999 16.35C3.04999 16.8167 3.22082 17.2083 3.56249 17.525C3.90415 17.8417 4.31665 18 4.79999 18ZM13.5 11C13.7833 11 14.0208 10.9042 14.2125 10.7125C14.4042 10.5208 14.5 10.2833 14.5 10C14.5 9.71667 14.4042 9.47917 14.2125 9.2875C14.0208 9.09583 13.7833 9 13.5 9C13.2167 9 12.9792 9.09583 12.7875 9.2875C12.5958 9.47917 12.5 9.71667 12.5 10C12.5 10.2833 12.5958 10.5208 12.7875 10.7125C12.9792 10.9042 13.2167 11 13.5 11ZM15.5 9C15.7833 9 16.0208 8.90417 16.2125 8.7125C16.4042 8.52083 16.5 8.28333 16.5 8C16.5 7.71667 16.4042 7.47917 16.2125 7.2875C16.0208 7.09583 15.7833 7 15.5 7C15.2167 7 14.9792 7.09583 14.7875 7.2875C14.5958 7.47917 14.5 7.71667 14.5 8C14.5 8.28333 14.5958 8.52083 14.7875 8.7125C14.9792 8.90417 15.2167 9 15.5 9ZM15.5 13C15.7833 13 16.0208 12.9042 16.2125 12.7125C16.4042 12.5208 16.5 12.2833 16.5 12C16.5 11.7167 16.4042 11.4792 16.2125 11.2875C16.0208 11.0958 15.7833 11 15.5 11C15.2167 11 14.9792 11.0958 14.7875 11.2875C14.5958 11.4792 14.5 11.7167 14.5 12C14.5 12.2833 14.5958 12.5208 14.7875 12.7125C14.9792 12.9042 15.2167 13 15.5 13ZM17.5 11C17.7833 11 18.0208 10.9042 18.2125 10.7125C18.4042 10.5208 18.5 10.2833 18.5 10C18.5 9.71667 18.4042 9.47917 18.2125 9.2875C18.0208 9.09583 17.7833 9 17.5 9C17.2167 9 16.9792 9.09583 16.7875 9.2875C16.5958 9.47917 16.5 9.71667 16.5 10C16.5 10.2833 16.5958 10.5208 16.7875 10.7125C16.9792 10.9042 17.2167 11 17.5 11ZM8.49999 12.5C8.71666 12.5 8.89582 12.4292 9.03749 12.2875C9.17916 12.1458 9.24999 11.9667 9.24999 11.75V10.75H10.25C10.4667 10.75 10.6458 10.6792 10.7875 10.5375C10.9292 10.3958 11 10.2167 11 10C11 9.78333 10.9292 9.60417 10.7875 9.4625C10.6458 9.32083 10.4667 9.25 10.25 9.25H9.24999V8.25C9.24999 8.03333 9.17916 7.85417 9.03749 7.7125C8.89582 7.57083 8.71666 7.5 8.49999 7.5C8.28332 7.5 8.10416 7.57083 7.96249 7.7125C7.82082 7.85417 7.74999 8.03333 7.74999 8.25V9.25H6.74999C6.53332 9.25 6.35416 9.32083 6.21249 9.4625C6.07082 9.60417 5.99999 9.78333 5.99999 10C5.99999 10.2167 6.07082 10.3958 6.21249 10.5375C6.35416 10.6792 6.53332 10.75 6.74999 10.75H7.74999V11.75C7.74999 11.9667 7.82082 12.1458 7.96249 12.2875C8.10416 12.4292 8.28332 12.5 8.49999 12.5Z" fill="#82ACF5"/>
</g>
</svg>
