<svg width="24" height="24" viewBox="0 0 24 24" fill="none" xmlns="http://www.w3.org/2000/svg">
<mask id="mask0_824_2756" style="mask-type:alpha" maskUnits="userSpaceOnUse" x="0" y="0" width="24" height="24">
<rect width="24" height="24" fill="#D9D9D9"/>
</mask>
<g mask="url(#mask0_824_2756)">
<path d="M5.99999 19.6153C5.55578 19.6153 5.17549 19.4572 4.85914 19.1408C4.54281 18.8245 4.38464 18.4442 4.38464 18C4.38464 17.5558 4.54281 17.1755 4.85914 16.8591C5.17549 16.5428 5.55578 16.3846 5.99999 16.3846C6.44421 16.3846 6.82449 16.5428 7.14084 16.8591C7.45718 17.1755 7.61534 17.5558 7.61534 18C7.61534 18.4442 7.45718 18.8245 7.14084 19.1408C6.82449 19.4572 6.44421 19.6153 5.99999 19.6153ZM5.99999 13.6153C5.55578 13.6153 5.17549 13.4572 4.85914 13.1408C4.54281 12.8245 4.38464 12.4442 4.38464 12C4.38464 11.5558 4.54281 11.1755 4.85914 10.8591C5.17549 10.5428 5.55578 10.3846 5.99999 10.3846C6.44421 10.3846 6.82449 10.5428 7.14084 10.8591C7.45718 11.1755 7.61534 11.5558 7.61534 12C7.61534 12.4442 7.45718 12.8245 7.14084 13.1408C6.82449 13.4572 6.44421 13.6153 5.99999 13.6153ZM5.99999 7.61534C5.55578 7.61534 5.17549 7.45718 4.85914 7.14084C4.54281 6.82449 4.38464 6.44421 4.38464 5.99999C4.38464 5.55578 4.54281 5.17549 4.85914 4.85914C5.17549 4.54281 5.55578 4.38464 5.99999 4.38464C6.44421 4.38464 6.82449 4.54281 7.14084 4.85914C7.45718 5.17549 7.61534 5.55578 7.61534 5.99999C7.61534 6.44421 7.45718 6.82449 7.14084 7.14084C6.82449 7.45718 6.44421 7.61534 5.99999 7.61534ZM11.9966 13.6153C11.5514 13.6153 11.1715 13.4572 10.8567 13.1408C10.542 12.8245 10.3846 12.4442 10.3846 12C10.3846 11.5558 10.5428 11.1755 10.8591 10.8591C11.1755 10.5428 11.5558 10.3846 12 10.3846C12.4442 10.3846 12.8245 10.5428 13.1408 10.8591C13.4572 11.1755 13.6153 11.5558 13.6153 12L11.9966 13.6153ZM12 7.61534C11.5558 7.61534 11.1755 7.45718 10.8591 7.14084C10.5428 6.82449 10.3846 6.44421 10.3846 5.99999C10.3846 5.55578 10.5428 5.17549 10.8591 4.85914C11.1755 4.54281 11.5558 4.38464 12 4.38464C12.4442 4.38464 12.8245 4.54281 13.1408 4.85914C13.4572 5.17549 13.6153 5.55578 13.6153 5.99999C13.6153 6.44421 13.4572 6.82449 13.1408 7.14084C12.8245 7.45718 12.4442 7.61534 12 7.61534ZM11 19.7307V18.1346L16.5885 12.5461L18.1846 14.1423L12.5961 19.7307H11ZM18 7.61534C17.5558 7.61534 17.1755 7.45718 16.8591 7.14084C16.5428 6.82449 16.3846 6.44421 16.3846 5.99999C16.3846 5.55578 16.5428 5.17549 16.8591 4.85914C17.1755 4.54281 17.5558 4.38464 18 4.38464C18.4442 4.38464 18.8245 4.54281 19.1408 4.85914C19.4572 5.17549 19.6153 5.55578 19.6153 5.99999C19.6153 6.44421 19.4572 6.82449 19.1408 7.14084C18.8245 7.45718 18.4442 7.61534 18 7.61534ZM18.798 13.5384L17.1923 11.9327L17.8019 11.3327C17.9506 11.184 18.124 11.1096 18.3221 11.1096C18.5202 11.1096 18.6852 11.184 18.8173 11.3327L19.398 11.9135C19.5468 12.0455 19.6195 12.2106 19.6163 12.4086C19.6131 12.6067 19.5403 12.7801 19.398 12.9288L18.798 13.5384Z" fill="#82ACF5"/>
</g>
</svg>
